<svg xmlns="http://www.w3.org/2000/svg" xml:space="preserve" width="338.68356mm" height="123.19706mm" viewBox="0 0 338.68355 123.19706"><defs><linearGradient id="a" x1="1140.1382" x2="1180.1378" y1="3.2748001" y2="3.2748001" gradientTransform="matrix(3.07993 0 0 3.07993 -4459.542 418.682)" gradientUnits="userSpaceOnUse"><stop offset="0" stop-color="#e7380d"/><stop offset=".02" stop-color="#e7380d"/><stop offset=".07511782" stop-color="#e8410c"/><stop offset=".1651" stop-color="#ec590a"/><stop offset=".2786" stop-color="#f18107"/><stop offset=".41" stop-color="#f9b703"/><stop offset=".5" stop-color="#ffe100"/><stop offset=".59" stop-color="#f9b703"/><stop offset=".7214" stop-color="#f18107"/><stop offset=".8349" stop-color="#ec590a"/><stop offset=".9249" stop-color="#e8410c"/><stop offset=".98" stop-color="#e7380d"/><stop offset="1" stop-color="#e7380d"/></linearGradient><linearGradient id="b" x1="1163.9911" x2="1153.3107" y1="-3.5228" y2="-3.5228" gradientTransform="matrix(3.07993 0 0 3.07993 -4459.542 418.071)" gradientUnits="userSpaceOnUse"><stop offset=".2" stop-color="#fd0"/><stop offset=".2824" stop-color="#fdca02"/><stop offset=".4488" stop-color="#f79a05"/><stop offset=".6813" stop-color="#ee4e0c"/><stop offset=".9" stop-color="#e50012"/></linearGradient><linearGradient id="c" x1="-5195.939" x2="-5206.6196" y1="-6982.6733" y2="-6982.6733" gradientTransform="matrix(-3.07993 0 0 -3.07993 -16901.423 -21055.794)" gradientUnits="userSpaceOnUse"><stop offset=".2" stop-color="#fd0"/><stop offset=".2824" stop-color="#fdca02"/><stop offset=".4488" stop-color="#f79a05"/><stop offset=".6813" stop-color="#ee4e0c"/><stop offset=".9" stop-color="#e50012"/></linearGradient></defs><path d="M-644.173 453.832c-1.122 0-2.123.204-3.024.594-.9.391-1.665.952-2.293 1.665-.645.696-1.122 1.546-1.46 2.531-.34.968-.51 2.038-.51 3.193 0 1.155.17 2.209.526 3.177.357.968.883 1.8 1.58 2.514.696.696 1.562 1.24 2.582 1.63 1.019.391 2.174.595 3.482.595 1.75 0 3.279-.22 4.604-.696l-.442-2.446a8.998 8.998 0 0 1-1.886.475c-.68.103-1.342.17-1.987.17-1.478 0-2.684-.39-3.636-1.172-.934-.781-1.461-1.885-1.596-3.33h10.668v-1.41c0-1.137-.139-2.156-.408-3.09-.289-.935-.697-1.716-1.257-2.362a5.791 5.791 0 0 0-2.073-1.512c-.815-.34-1.766-.526-2.87-.526zm0 2.36v.001c1.104 0 1.97.374 2.615 1.121.648.73.935 1.716.935 2.939v.068h-7.61c.152-1.24.56-2.225 1.257-2.99.713-.747 1.648-1.138 2.803-1.138zM-712.612 453.832c-.798 0-1.664.102-2.598.289-.951.186-1.682.39-2.209.611l.68 2.446a11.6 11.6 0 0 1 2.021-.628c.714-.136 1.325-.204 1.869-.204 1.222 0 2.106.272 2.684.798.579.544.866 1.325.866 2.344v.34c-1.29 0-2.53.068-3.685.204-1.155.136-2.192.39-3.075.764-.9.374-1.614.9-2.123 1.597-.525.68-.782 1.58-.782 2.667 0 .85.155 1.58.46 2.174.305.594.712 1.07 1.205 1.444.51.374 1.07.645 1.699.815a8.014 8.014 0 0 0 1.92.238c1.12 0 2.071-.22 2.853-.68.798-.44 1.375-1.018 1.767-1.732h.07c.034.34.082.713.134 1.087.07.39.122.714.204.985h2.922c-.104-.492-.161-1.07-.205-1.698-.026-.646-.069-1.223-.069-1.767v-6.438c0-1.868-.56-3.278-1.664-4.229-1.121-.951-2.77-1.427-4.944-1.427zm2.684 8.187h.63v1.172a5.17 5.17 0 0 1-.222 1.546 3.645 3.645 0 0 1-.714 1.308c-.322.39-.73.696-1.24.917-.509.238-1.103.357-1.783.357-.832 0-1.477-.221-1.903-.663-.424-.424-.628-1.002-.628-1.732 0-.595.154-1.087.476-1.46.322-.375.747-.664 1.29-.885.527-.22 1.156-.373 1.869-.458a23.9 23.9 0 0 1 2.225-.102zM-749.403 453.832c-1.12 0-2.123.204-3.023.594a6.75 6.75 0 0 0-2.293 1.665c-.629.696-1.122 1.546-1.461 2.531-.34.968-.51 2.038-.51 3.193 0 1.155.187 2.209.544 3.177.357.968.884 1.8 1.58 2.514.68.696 1.546 1.24 2.565 1.63 1.019.391 2.191.595 3.499.595 1.732 0 3.261-.221 4.586-.697l-.426-2.445a9.004 9.004 0 0 1-1.886.475c-.696.103-1.359.17-1.987.17-1.478 0-2.7-.39-3.635-1.172-.951-.781-1.48-1.885-1.597-3.33h10.67v-1.41c0-1.137-.156-2.156-.426-3.09-.288-.935-.695-1.716-1.256-2.362a5.646 5.646 0 0 0-2.073-1.512c-.815-.34-1.767-.526-2.87-.526zm-.002 2.36v.001c1.104 0 1.97.374 2.616 1.121.647.73.934 1.716.934 2.939v.068h-7.592c.136-1.24.543-2.225 1.256-2.99.697-.747 1.631-1.138 2.786-1.138zM-668.277 423.494c-1.12 0-2.123.204-3.023.595a6.44 6.44 0 0 0-2.294 1.664c-.645.697-1.122 1.546-1.46 2.531-.341.969-.51 2.038-.51 3.193 0 1.156.17 2.209.526 3.177.357.968.883 1.8 1.58 2.514.696.697 1.562 1.24 2.582 1.631 1.02.408 2.174.594 3.482.594 1.75 0 3.279-.22 4.604-.696l-.442-2.446a8.742 8.742 0 0 1-1.886.475c-.68.103-1.342.17-1.987.17-1.478 0-2.684-.39-3.635-1.172-.934-.781-1.462-1.885-1.597-3.329h10.669v-1.41c0-1.138-.14-2.157-.409-3.091-.289-.935-.697-1.716-1.257-2.361a5.792 5.792 0 0 0-2.073-1.512c-.815-.34-1.766-.527-2.87-.527zm0 2.361c1.104 0 1.97.374 2.615 1.121.648.73.935 1.716.935 2.94v.067h-7.61c.153-1.24.56-2.225 1.274-2.99.696-.747 1.631-1.138 2.786-1.138zM-732.316 423.495c-.798 0-1.665.1-2.616.288-.934.187-1.665.39-2.191.612l.663 2.446a12.29 12.29 0 0 1 2.038-.629c.713-.136 1.325-.204 1.868-.204 1.207 0 2.106.272 2.684.798.58.544.866 1.325.866 2.344l.002.34c-1.308 0-2.53.068-3.686.204-1.172.136-2.19.39-3.091.764-.883.374-1.597.9-2.124 1.597-.524.68-.781 1.58-.781 2.667 0 .85.154 1.58.458 2.174.323.595.714 1.07 1.223 1.444.493.374 1.07.646 1.682.816a8.158 8.158 0 0 0 1.936.238c1.104 0 2.056-.221 2.854-.68.799-.441 1.375-1.019 1.767-1.732h.052c.052.34.083.713.152 1.087.053.39.118.713.187.985h2.939c-.105-.51-.17-1.07-.222-1.699a21.18 21.18 0 0 1-.053-1.766v-6.438c0-1.869-.56-3.278-1.664-4.23-1.121-.95-2.769-1.426-4.943-1.426zm2.684 8.187h.63v1.172c0 .543-.07 1.053-.222 1.545a3.645 3.645 0 0 1-.714 1.308c-.322.39-.73.697-1.24.917-.51.238-1.104.358-1.783.358-.85 0-1.476-.221-1.903-.663-.424-.425-.645-1.002-.645-1.733 0-.594.17-1.087.492-1.46.306-.357.748-.663 1.274-.884.544-.22 1.172-.374 1.886-.459a23.612 23.612 0 0 1 2.225-.101zM-757.405 423.494c-1.12 0-2.123.204-3.023.595-.901.39-1.665.95-2.294 1.664-.645.697-1.121 1.546-1.46 2.531-.34.969-.51 2.038-.51 3.193 0 1.156.17 2.209.527 3.177.356.968.883 1.8 1.58 2.514.696.697 1.563 1.24 2.581 1.631 1.02.408 2.174.594 3.482.594 1.75 0 3.279-.22 4.604-.696l-.442-2.446a8.997 8.997 0 0 1-1.885.475c-.68.103-1.342.17-1.988.17-1.477 0-2.684-.39-3.635-1.172-.934-.781-1.48-1.885-1.596-3.329h10.668v-1.41c0-1.138-.139-2.157-.409-3.091-.288-.935-.696-1.716-1.257-2.361a5.79 5.79 0 0 0-2.072-1.512c-.816-.34-1.767-.527-2.87-.527zm0 2.361c1.104 0 1.97.374 2.616 1.121.648.73.934 1.716.934 2.94v.067h-7.61c.153-1.24.561-2.225 1.258-2.99.713-.747 1.647-1.138 2.802-1.138zM-777.028 393.156c-1.155 0-2.174.187-3.092.561-.917.357-1.698.866-2.327 1.546-.662.68-1.155 1.511-1.495 2.497-.34.985-.526 2.09-.526 3.33 0 1.24.187 2.36.526 3.329.34.985.833 1.817 1.495 2.514a6.221 6.221 0 0 0 2.327 1.58c.918.356 1.937.543 3.092.543 1.138 0 2.158-.187 3.075-.544.917-.356 1.681-.9 2.344-1.58a7.234 7.234 0 0 0 1.477-2.513c.358-.969.527-2.09.527-3.33 0-1.24-.17-2.344-.527-3.33a7.085 7.085 0 0 0-1.477-2.513 6.493 6.493 0 0 0-2.344-1.546c-.917-.357-1.937-.544-3.075-.544zm.002 2.515c.713 0 1.325.135 1.851.39.51.272.935.646 1.274 1.121.34.493.596 1.07.748 1.733.174.646.257 1.376.257 2.174h-.004c0 1.648-.34 2.956-1.02 3.958-.68.985-1.716 1.494-3.108 1.512-1.393-.017-2.43-.527-3.11-1.529-.696-1.002-1.035-2.31-1.035-3.94 0-.8.087-1.512.257-2.175a5.079 5.079 0 0 1 .747-1.716c.34-.475.765-.866 1.291-1.138.51-.255 1.138-.39 1.852-.39z" style="fill:#fff;stroke-width:3.07993" transform="translate(948 -367.17)"/><path d="m-824.803 428.768-61.599-61.598L-948 428.768l61.598 61.599z" style="fill:url(#a);stroke-width:3.07993" transform="translate(948 -367.17)"/><path d="M-883.014 432.156v-49.895l-24.947 24.948z" style="fill:url(#b);stroke-width:3.07993" transform="translate(948 -367.17)"/><path d="M-889.79 425.38v49.895l24.948-24.947z" style="fill:url(#c);stroke-width:3.07993" transform="translate(948 -367.17)"/><path d="M-631.315 454.189v2.123h.052c.427-.782 1.07-1.393 1.903-1.835a6.207 6.207 0 0 1 2.82-.645c1.681 0 3.04.51 4.042 1.495 1.003 1.002 1.495 2.344 1.495 4.042v10.022h-3.295v-8.782c0-.662-.052-1.257-.135-1.8-.1-.527-.27-.985-.527-1.342a2.355 2.355 0 0 0-.984-.832c-.392-.204-.918-.29-1.546-.29-.476 0-.918.086-1.376.256-.426.17-.832.441-1.173.798a3.94 3.94 0 0 0-.849 1.427c-.222.594-.339 1.308-.339 2.157v8.408h-3.295V454.19zM-673.78 454.189v2.174h.07a4.114 4.114 0 0 1 1.816-1.869 5.592 5.592 0 0 1 2.667-.662c2.26 0 3.754.832 4.502 2.48h.083c.543-.883 1.24-1.512 2.072-1.92a6.024 6.024 0 0 1 2.701-.56c.917 0 1.732.136 2.43.407.695.272 1.273.646 1.715 1.138.458.493.798 1.07 1.019 1.75.222.662.322 1.41.322 2.242v10.022h-3.296v-8.782c0-.764-.043-1.393-.1-1.851a3.827 3.827 0 0 0-.458-1.257 2.012 2.012 0 0 0-.935-.867c-.374-.204-.883-.288-1.477-.288-.41 0-.816.067-1.224.22a3.158 3.158 0 0 0-1.07.646 3.881 3.881 0 0 0-.747 1.19c-.187.492-.287 1.052-.287 1.715v9.274h-3.296v-8.952c0-.645-.043-1.223-.1-1.715-.087-.51-.221-.951-.442-1.308a2.017 2.017 0 0 0-.917-.798c-.391-.188-.883-.272-1.477-.272a3.51 3.51 0 0 0-1.308.255c-.426.17-.782.424-1.087.764-.322.34-.561.781-.765 1.359-.204.56-.304 1.257-.304 2.072v8.595h-3.296v-15.203zM-690.988 454.189v2.123h.052c.426-.782 1.053-1.393 1.903-1.835a6.189 6.189 0 0 1 2.803-.645c1.698 0 3.057.51 4.043 1.495 1.018 1.002 1.511 2.344 1.511 4.042v10.022h-3.295v-8.782c0-.662-.052-1.257-.135-1.8-.104-.527-.27-.985-.526-1.342a2.355 2.355 0 0 0-.986-.832c-.409-.204-.934-.29-1.563-.29-.458 0-.917.086-1.359.256-.441.17-.832.441-1.172.798-.356.374-.645.85-.866 1.427-.222.594-.322 1.308-.322 2.157v8.408h-3.295V454.19zM-698.562 451.42h-3.38v-3.058h3.38zM-698.632 469.391h-3.295v-15.22h3.295zM-730.125 454.189h2.532v-3.958h3.312v3.958h3.346v2.497h-3.346v7.95c0 .509 0 .933.052 1.256.044.306.117.56.256.73.135.17.322.29.544.34.24.068.56.102.968.102a10.299 10.299 0 0 0 1.495-.12v2.446c-.322.035-.714.068-1.155.102-.442.051-.884.068-1.325.068-.883 0-1.597-.102-2.14-.289-.544-.187-.969-.475-1.257-.849a3.214 3.214 0 0 1-.595-1.359 11.13 11.13 0 0 1-.152-1.818v-8.56h-2.531zM-731.551 456.448c-.322-.068-.731-.102-1.24-.102a3.36 3.36 0 0 0-1.377.238 3 3 0 0 0-1.222.85c-.322.39-.595.9-.782 1.562-.187.645-.287 1.41-.287 2.276v8.12h-3.295v-15.203h3.21v2.004h.053c.696-1.58 2.038-2.36 3.991-2.36.152 0 .322 0 .527.016.187.017.374.017.578.051zM-767.869 454.189h2.549v-3.958h3.295v3.958h3.346v2.497h-3.346v7.95c0 .509 0 .933.052 1.256.044.306.117.56.257.73.135.17.322.29.56.34.222.068.544.102.952.102a10.276 10.276 0 0 0 1.495-.12v2.446c-.322.035-.714.068-1.155.102-.442.051-.884.068-1.325.068-.884 0-1.597-.102-2.14-.289-.544-.187-.97-.475-1.258-.85-.304-.373-.492-.831-.594-1.358a11.77 11.77 0 0 1-.135-1.818v-8.56h-2.548zM-780.676 454.189v2.123h.052c.426-.782 1.07-1.393 1.92-1.835a6.189 6.189 0 0 1 2.802-.645c1.699 0 3.04.51 4.043 1.495 1.002 1.002 1.512 2.344 1.512 4.042v10.022h-3.295v-8.782a9.91 9.91 0 0 0-.153-1.8c-.104-.527-.27-.985-.526-1.342a2.309 2.309 0 0 0-.969-.832c-.409-.204-.934-.29-1.563-.29a3.71 3.71 0 0 0-1.359.256c-.441.17-.849.441-1.189.798-.356.374-.628.85-.849 1.427-.222.594-.339 1.308-.339 2.157v8.408h-3.296V454.19zM-799.582 448.82h11.89v2.736h-8.51v5.91h7.848v2.77h-7.848v6.42h8.765v2.735h-12.145zM-684.057 436.149h.052l4.043-12.298h3.499l-5.708 15.203h-3.856l-5.656-15.203h3.584zM-693.993 421.082h-3.38v-3.057h3.38zM-694.063 439.054h-3.295V423.85h3.295zM-709.588 423.834h2.548v-3.94h3.295v3.94h3.347v2.514h-3.347v7.95c0 .51 0 .934.07 1.257.043.305.117.56.256.73.135.17.304.289.544.34.239.067.56.101.968.101a10.364 10.364 0 0 0 1.495-.12v2.447c-.34.035-.714.068-1.155.102-.442.05-.883.067-1.342.067-.883 0-1.597-.101-2.123-.288-.544-.187-.969-.476-1.257-.85-.305-.373-.493-.832-.595-1.359a9.483 9.483 0 0 1-.152-1.817v-8.561h-2.548zM-711.915 426.552a7.076 7.076 0 0 0-1.36-.425 7.895 7.895 0 0 0-1.358-.119c-.799 0-1.495.136-2.09.425a4.376 4.376 0 0 0-1.528 1.172 4.957 4.957 0 0 0-.917 1.733 6.844 6.844 0 0 0-.322 2.14c0 .747.104 1.444.322 2.106.204.646.509 1.223.917 1.716.409.51.934.9 1.563 1.172.645.289 1.342.425 2.106.425.475 0 .951-.051 1.393-.12.441-.084.9-.22 1.359-.441l.543 2.48a9.353 9.353 0 0 1-1.732.459 12.2 12.2 0 0 1-1.767.118c-1.308 0-2.463-.204-3.482-.611-1.002-.39-1.852-.951-2.514-1.665a6.898 6.898 0 0 1-1.495-2.497c-.34-.968-.51-2.004-.51-3.142 0-1.172.187-2.242.544-3.21.374-.969.9-1.801 1.58-2.515.68-.696 1.529-1.24 2.497-1.647.985-.408 2.106-.612 3.363-.612 1.36 0 2.531.187 3.516.544zM-739.552 426.127c-.322-.085-.747-.119-1.24-.119-.442-.017-.9.051-1.376.238-.493.187-.9.476-1.223.85-.322.39-.595.9-.781 1.562-.187.646-.287 1.41-.287 2.276v8.12h-3.295v-15.203h3.21v2.005h.052c.697-1.58 2.022-2.362 3.992-2.362.152 0 .322 0 .527.018.187.017.374.017.577.05zM-775.886 423.834h2.548v-3.94h3.295v3.94h3.347v2.514h-3.347v7.95c0 .51 0 .934.07 1.257.043.305.117.56.256.73.135.17.322.289.544.34.24.068.56.101.968.101a10.363 10.363 0 0 0 1.495-.12v2.447c-.322.035-.714.068-1.155.102-.442.05-.884.068-1.342.068-.883 0-1.597-.102-2.123-.29-.544-.186-.969-.475-1.257-.849-.305-.373-.493-.832-.595-1.359a9.832 9.832 0 0 1-.152-1.817v-8.561h-2.548zM-788.677 423.834v2.14h.053c.426-.781 1.07-1.393 1.902-1.834a6.207 6.207 0 0 1 2.82-.646c1.682 0 3.04.51 4.042 1.495 1.003 1.002 1.495 2.344 1.495 4.043v10.022h-3.295v-8.782c0-.663-.052-1.257-.135-1.8-.1-.527-.27-.986-.526-1.343a2.355 2.355 0 0 0-.985-.832c-.391-.204-.918-.289-1.563-.289-.459 0-.9.085-1.359.255-.442.17-.832.442-1.172.798a3.94 3.94 0 0 0-.85 1.427c-.221.595-.339 1.308-.339 2.158v8.408h-3.295v-15.22zM-799.582 418.483h3.38v20.57h-3.38zM-743.306 404.707h.07l4.06-11.21h3.465l-8.29 20.825h-3.465l2.463-5.929-5.996-14.897h3.601zM-763.3 393.513v2.124h.053c.426-.782 1.07-1.393 1.903-1.835a6.202 6.202 0 0 1 2.82-.645c1.681 0 3.04.51 4.025 1.494 1.02 1.003 1.512 2.344 1.512 4.043v10.022h-3.295v-8.782c0-.662-.053-1.257-.135-1.8-.1-.527-.27-.986-.527-1.342a2.357 2.357 0 0 0-.985-.833c-.409-.204-.917-.288-1.563-.288-.459 0-.917.084-1.359.254-.441.17-.832.442-1.189.799a4.48 4.48 0 0 0-.849 1.427c-.222.594-.322 1.308-.322 2.157v8.408h-3.295v-15.203zM-788.915 391.339a14.54 14.54 0 0 0-2.242-.595 12.489 12.489 0 0 0-2.225-.204c-.475 0-.934.051-1.393.136a4.05 4.05 0 0 0-1.206.459c-.339.204-.611.475-.815.832-.222.357-.322.765-.322 1.257 0 .39.07.747.222 1.053.134.306.374.612.696.884.339.288.764.543 1.274.815.527.272 1.155.56 1.92.866.883.34 1.68.714 2.411 1.121.714.39 1.342.833 1.852 1.325.51.493.883 1.036 1.155 1.682.257.628.391 1.376.391 2.208 0 1.002-.204 1.886-.594 2.633a5.315 5.315 0 0 1-1.63 1.835 7.863 7.863 0 0 1-2.362 1.07c-.883.22-1.783.34-2.7.34-.935 0-1.937-.085-3.041-.272a15.123 15.123 0 0 1-3.143-.884l.697-2.786c.934.425 1.885.73 2.837.918.95.187 1.817.288 2.581.288 1.24 0 2.208-.237 2.922-.73s1.07-1.223 1.07-2.174c0-.442-.083-.85-.287-1.206a3.21 3.21 0 0 0-.849-.968c-.374-.306-.85-.595-1.41-.867a24.73 24.73 0 0 0-1.954-.85c-.866-.339-1.63-.713-2.293-1.103a7.59 7.59 0 0 1-1.698-1.308 5.564 5.564 0 0 1-1.07-1.614c-.257-.594-.374-1.257-.374-1.987 0-.969.204-1.818.612-2.548a5.262 5.262 0 0 1 1.596-1.8 7.226 7.226 0 0 1 2.226-1.037 9.735 9.735 0 0 1 2.564-.323c.952 0 1.886.068 2.786.204.9.136 1.716.323 2.463.595z" style="fill:#fff;stroke-width:3.07993" transform="translate(948 -367.17)"/><path d="M-618.524 454.189h2.548v-3.958h3.296v3.958h3.363v2.497h-3.363v7.95c0 .51.043.934.07 1.256.043.306.117.561.256.73.135.17.322.29.543.34.24.068.56.102.968.102a10.41 10.41 0 0 0 1.495-.12v2.447c-.321.035-.713.068-1.155.101-.441.051-.883.068-1.325.068-.9 0-1.613-.101-2.14-.288-.544-.187-.968-.476-1.257-.85-.305-.373-.493-.832-.595-1.359a9.85 9.85 0 0 1-.152-1.817v-8.561h-2.548z" style="fill:#fff;stroke-width:4.34852" transform="translate(948 -367.17)"/></svg>